<svg width="250" height="60" viewBox="0 0 250 60" fill="none" xmlns="http://www.w3.org/2000/svg">
  <path d="M15 15C15 12.2386 17.2386 10 20 10H40C42.7614 10 45 12.2386 45 15V45C45 47.7614 42.7614 50 40 50H20C17.2386 50 15 47.7614 15 45V15Z" fill="#2563EB"/>
  <path d="M22 20H38M22 28H38M22 36H30" stroke="white" stroke-width="2.5" stroke-linecap="round"/>
  <path d="M24 10V7C24 5.34315 25.3431 4 27 4H33C34.6569 4 36 5.34315 36 7V10" stroke="#1E293B" stroke-width="2.5" stroke-linecap="round"/>

  <text x="60" y="42" font-family="Arial, sans-serif" font-weight="800" font-size="32" fill="#1E293B">EDU</text>
  <text x="128" y="42" font-family="Arial, sans-serif" font-weight="400" font-size="32" fill="#2563EB">STORE</text>
</svg>